<svg width="62" height="75" viewBox="0 0 62 75" fill="none" xmlns="http://www.w3.org/2000/svg">
<path opacity="0.5" d="M36.656 52.072L33.68 55.048H54.416V73.288H5.744V56.68L26.96 35.08L30.224 31.816C31.664 30.184 33.2 27.688 33.2 25.48C33.2 22.12 30.608 20.008 27.152 20.008C23.216 20.008 18.416 22.504 12.656 27.592L2 13.192C10.352 5.032 19.472 1 29.552 1C36.56 1 42.416 3.112 47.12 7.432C51.824 11.752 54.128 16.936 54.128 23.176C54.128 27.88 52.688 32.488 49.712 36.808C46.832 41.128 42.512 46.216 36.656 52.072Z" fill="white" stroke="#EE325C" stroke-width="2"/>
</svg>
