<svg width="62" height="75" viewBox="0 0 62 75" fill="none" xmlns="http://www.w3.org/2000/svg">
<path opacity="0.5" d="M26.768 74.344C18.224 74.344 9.968 72.04 2 67.336L9.968 51.496C15.344 54.472 20.432 56.008 25.136 56.008C30.416 56.008 33.2 54.088 33.2 51.016C33.2 48.424 30.704 46.696 26.768 46.696H17.456V28.936H24.08C28.976 28.936 31.568 27.016 31.568 24.328C31.568 21.544 28.88 19.816 25.136 19.816C21.968 19.816 17.84 21.352 12.848 24.424L3.632 10.024C10.64 3.976 18.8 1 28.016 1C34.448 1 40.016 2.728 44.624 6.28C49.232 9.736 51.536 14.056 51.536 19.336C51.536 26.728 46.448 32.392 39.92 34.792V35.176C49.04 37.192 53.936 44.296 53.936 52.744C53.936 59.176 51.44 64.36 46.352 68.392C41.264 72.328 34.736 74.344 26.768 74.344Z" fill="white" stroke="#EE325C" stroke-width="2"/>
</svg>
