<svg width="62" height="75" viewBox="0 0 62 73" fill="none" xmlns="http://www.w3.org/2000/svg">
<g opacity="0.5">
<path fill-rule="evenodd" clip-rule="evenodd" d="M60.368 41.032H53.072V1H37.136L2 43.912L5.84 57.16H34.832V71.944H53.072V57.16H60.368V41.032ZM22.352 41.032L34.832 25.384V41.032H22.352Z" fill="white"/>
<path d="M53.072 41.032H52.072V42.032H53.072V41.032ZM60.368 41.032H61.368V40.032H60.368V41.032ZM53.072 1H54.072V0H53.072V1ZM37.136 1V0H36.6623L36.3623 0.366479L37.136 1ZM2 43.912L1.22627 43.2785L0.89314 43.6853L1.03953 44.1904L2 43.912ZM5.84 57.16L4.87953 57.4384L5.08869 58.16H5.84V57.16ZM34.832 57.16H35.832V56.16H34.832V57.16ZM34.832 71.944H33.832V72.944H34.832V71.944ZM53.072 71.944V72.944H54.072V71.944H53.072ZM53.072 57.16V56.16H52.072V57.16H53.072ZM60.368 57.16V58.16H61.368V57.16H60.368ZM34.832 25.384H35.832V22.5264L34.0502 24.7605L34.832 25.384ZM22.352 41.032L21.5702 40.4085L20.2754 42.032H22.352V41.032ZM34.832 41.032V42.032H35.832V41.032H34.832ZM53.072 42.032H60.368V40.032H53.072V42.032ZM52.072 1V41.032H54.072V1H52.072ZM37.136 2H53.072V0H37.136V2ZM2.77373 44.5455L37.9097 1.63352L36.3623 0.366479L1.22627 43.2785L2.77373 44.5455ZM6.80047 56.8816L2.96047 43.6336L1.03953 44.1904L4.87953 57.4384L6.80047 56.8816ZM34.832 56.16H5.84V58.16H34.832V56.16ZM35.832 71.944V57.16H33.832V71.944H35.832ZM53.072 70.944H34.832V72.944H53.072V70.944ZM52.072 57.16V71.944H54.072V57.16H52.072ZM60.368 56.16H53.072V58.16H60.368V56.16ZM59.368 41.032V57.16H61.368V41.032H59.368ZM34.0502 24.7605L21.5702 40.4085L23.1338 41.6555L35.6138 26.0075L34.0502 24.7605ZM35.832 41.032V25.384H33.832V41.032H35.832ZM22.352 42.032H34.832V40.032H22.352V42.032Z" fill="#EE325C"/>
</g>
</svg>
